<?xml version="1.0" standalone="no"?><!DOCTYPE svg PUBLIC "-//W3C//DTD SVG 1.1//EN" "http://www.w3.org/Graphics/SVG/1.1/DTD/svg11.dtd"><svg t="1525875832765" class="icon" style="" viewBox="0 0 1024 1024" version="1.1" xmlns="http://www.w3.org/2000/svg" p-id="1886" xmlns:xlink="http://www.w3.org/1999/xlink" width="200" height="200"><defs><style type="text/css"></style></defs><path d="M0 0h1024v1024H0z" fill="#F78422" p-id="1887"></path><path d="M665.561465 357.622896C526.783739 218.84517 342.132495 142.415521 145.624151 142.415521v144.586065c157.887947 0 306.230895 61.388635 417.701565 172.859306 111.468423 111.47067 172.859305 259.813618 172.859305 417.701565h144.586065c-0.002247-196.508344-76.431895-381.161835-215.209621-519.939561z" fill="#FFFFFF" p-id="1888"></path><path d="M144.125442 387.087014v144.586065c190.722474 0 345.889378 155.164656 345.889378 345.891625h144.586065c0-270.45063-220.024813-490.47769-490.475443-490.47769z" fill="#FFFFFF" p-id="1889"></path><path d="M246.78811 778.025282m-103.55695 0a103.556949 103.556949 0 1 0 207.113899 0 103.556949 103.556949 0 1 0-207.113899 0Z" fill="#FFFFFF" p-id="1890"></path></svg>